<mxfile host="app.diagrams.net" modified="2023-09-12T13:40:58.295Z" agent="Mozilla/5.0 (Macintosh; Intel Mac OS X 10_15_7) AppleWebKit/537.36 (KHTML, like Gecko) Chrome/98.0.4758.102 Safari/537.36" etag="3sofsB5pcs_bvyMPkxOm" version="21.6.6" type="github">
  <diagram name="Page-1" id="74e2e168-ea6b-b213-b513-2b3c1d86103e">
    <mxGraphModel dx="1434" dy="796" grid="1" gridSize="10" guides="1" tooltips="1" connect="1" arrows="1" fold="1" page="1" pageScale="1" pageWidth="1100" pageHeight="850" background="none" math="0" shadow="0">
      <root>
        <mxCell id="0" />
        <mxCell id="1" parent="0" />
        <mxCell id="77e6c97f196da883-1" value="预算高级设置" style="swimlane;html=1;childLayout=stackLayout;startSize=20;rounded=0;shadow=0;labelBackgroundColor=none;strokeWidth=1;fontFamily=Verdana;fontSize=8;align=center;" parent="1" vertex="1">
          <mxGeometry x="70" y="20" width="640" height="260" as="geometry" />
        </mxCell>
        <mxCell id="77e6c97f196da883-2" value="server" style="swimlane;html=1;startSize=20;" parent="77e6c97f196da883-1" vertex="1">
          <mxGeometry y="20" width="160" height="240" as="geometry" />
        </mxCell>
        <mxCell id="77e6c97f196da883-8" value="planDetail" style="rounded=1;whiteSpace=wrap;html=1;shadow=0;labelBackgroundColor=none;strokeWidth=1;fontFamily=Verdana;fontSize=8;align=center;fillColor=#F8CECC;strokeColor=#b85450;opacity=50;gradientColor=#B266FF;" parent="77e6c97f196da883-2" vertex="1">
          <mxGeometry x="20" y="77.5" width="100" height="35" as="geometry" />
        </mxCell>
        <mxCell id="77e6c97f196da883-26" style="edgeStyle=orthogonalEdgeStyle;rounded=1;html=1;labelBackgroundColor=none;startArrow=none;startFill=0;startSize=5;endArrow=classicThin;endFill=1;endSize=5;jettySize=auto;orthogonalLoop=1;strokeWidth=1;fontFamily=Verdana;fontSize=8;fillColor=#f8cecc;strokeColor=#b85450;opacity=50;" parent="77e6c97f196da883-1" source="77e6c97f196da883-8" target="77e6c97f196da883-11" edge="1">
          <mxGeometry relative="1" as="geometry" />
        </mxCell>
        <mxCell id="77e6c97f196da883-3" value="数据层" style="swimlane;html=1;startSize=20;" parent="77e6c97f196da883-1" vertex="1">
          <mxGeometry x="160" y="20" width="160" height="240" as="geometry" />
        </mxCell>
        <mxCell id="77e6c97f196da883-11" value="store" style="rounded=1;whiteSpace=wrap;html=1;shadow=0;labelBackgroundColor=none;strokeWidth=1;fontFamily=Verdana;fontSize=8;align=center;fillColor=#F8CECC;strokeColor=#b85450;opacity=50;gradientColor=#B266FF;" parent="77e6c97f196da883-3" vertex="1">
          <mxGeometry x="30" y="77.5" width="100" height="35" as="geometry" />
        </mxCell>
        <mxCell id="K4eNRDiLH3yxI8Ocn9nE-1" value="props" style="rounded=1;whiteSpace=wrap;html=1;shadow=0;labelBackgroundColor=none;strokeWidth=1;fontFamily=Verdana;fontSize=8;align=center;fillColor=#F8CECC;strokeColor=#b85450;opacity=50;gradientColor=#B266FF;" vertex="1" parent="77e6c97f196da883-3">
          <mxGeometry x="30" y="170" width="100" height="35" as="geometry" />
        </mxCell>
        <mxCell id="77e6c97f196da883-4" value="函数" style="swimlane;html=1;startSize=20;" parent="77e6c97f196da883-1" vertex="1">
          <mxGeometry x="320" y="20" width="160" height="240" as="geometry" />
        </mxCell>
        <mxCell id="K4eNRDiLH3yxI8Ocn9nE-7" value="labelWithAttr" style="rounded=1;whiteSpace=wrap;html=1;shadow=0;labelBackgroundColor=none;strokeWidth=1;fontFamily=Verdana;fontSize=8;align=center;fillColor=#F8CECC;strokeColor=#b85450;opacity=50;gradientColor=#B266FF;" vertex="1" parent="77e6c97f196da883-4">
          <mxGeometry x="40" y="130" width="100" height="35" as="geometry" />
        </mxCell>
        <mxCell id="K4eNRDiLH3yxI8Ocn9nE-9" value="" style="endArrow=classic;html=1;rounded=0;hachureGap=4;fontFamily=Architects Daughter;fontSource=https%3A%2F%2Ffonts.googleapis.com%2Fcss%3Ffamily%3DArchitects%2BDaughter;fontSize=16;exitX=1;exitY=0.5;exitDx=0;exitDy=0;entryX=0.5;entryY=0;entryDx=0;entryDy=0;strokeColor=#d27070;" edge="1" parent="77e6c97f196da883-4" source="K4eNRDiLH3yxI8Ocn9nE-1">
          <mxGeometry width="50" height="50" relative="1" as="geometry">
            <mxPoint x="-30" y="195" as="sourcePoint" />
            <mxPoint x="90" y="160" as="targetPoint" />
            <Array as="points">
              <mxPoint x="90" y="188" />
            </Array>
          </mxGeometry>
        </mxCell>
        <mxCell id="77e6c97f196da883-7" value="组件" style="swimlane;html=1;startSize=20;" parent="77e6c97f196da883-1" vertex="1">
          <mxGeometry x="480" y="20" width="160" height="240" as="geometry" />
        </mxCell>
        <mxCell id="K4eNRDiLH3yxI8Ocn9nE-3" value="TopForm" style="rounded=1;whiteSpace=wrap;html=1;shadow=0;labelBackgroundColor=none;strokeWidth=1;fontFamily=Verdana;fontSize=8;align=center;fillColor=#F8CECC;strokeColor=#b85450;opacity=50;gradientColor=#B266FF;" vertex="1" parent="77e6c97f196da883-7">
          <mxGeometry x="30" y="130" width="100" height="35" as="geometry" />
        </mxCell>
        <mxCell id="K4eNRDiLH3yxI8Ocn9nE-2" style="edgeStyle=orthogonalEdgeStyle;rounded=1;html=1;labelBackgroundColor=none;startArrow=none;startFill=0;startSize=5;endArrow=classicThin;endFill=1;endSize=5;jettySize=auto;orthogonalLoop=1;strokeWidth=1;fontFamily=Verdana;fontSize=8;exitX=0.5;exitY=1;exitDx=0;exitDy=0;entryX=0;entryY=0.5;entryDx=0;entryDy=0;strokeColor=#d27070;" edge="1" parent="77e6c97f196da883-1" source="77e6c97f196da883-8" target="K4eNRDiLH3yxI8Ocn9nE-1">
          <mxGeometry relative="1" as="geometry">
            <mxPoint x="130" y="125" as="sourcePoint" />
            <mxPoint x="200" y="125" as="targetPoint" />
          </mxGeometry>
        </mxCell>
        <mxCell id="K4eNRDiLH3yxI8Ocn9nE-8" value="" style="endArrow=classic;html=1;rounded=0;hachureGap=4;fontFamily=Architects Daughter;fontSource=https%3A%2F%2Ffonts.googleapis.com%2Fcss%3Ffamily%3DArchitects%2BDaughter;fontSize=16;exitX=1;exitY=0.5;exitDx=0;exitDy=0;entryX=0.5;entryY=0;entryDx=0;entryDy=0;fillColor=#f8cecc;strokeColor=#b85450;opacity=50;" edge="1" parent="77e6c97f196da883-1" source="77e6c97f196da883-11" target="K4eNRDiLH3yxI8Ocn9nE-7">
          <mxGeometry width="50" height="50" relative="1" as="geometry">
            <mxPoint x="390" y="120" as="sourcePoint" />
            <mxPoint x="440" y="70" as="targetPoint" />
            <Array as="points">
              <mxPoint x="410" y="115" />
            </Array>
          </mxGeometry>
        </mxCell>
        <mxCell id="K4eNRDiLH3yxI8Ocn9nE-10" value="" style="endArrow=classic;html=1;rounded=0;hachureGap=4;fontFamily=Architects Daughter;fontSource=https%3A%2F%2Ffonts.googleapis.com%2Fcss%3Ffamily%3DArchitects%2BDaughter;fontSize=16;exitX=1;exitY=0.5;exitDx=0;exitDy=0;entryX=0;entryY=0.5;entryDx=0;entryDy=0;fillColor=#f8cecc;strokeColor=#b85450;opacity=50;" edge="1" parent="77e6c97f196da883-1" source="K4eNRDiLH3yxI8Ocn9nE-7" target="K4eNRDiLH3yxI8Ocn9nE-3">
          <mxGeometry width="50" height="50" relative="1" as="geometry">
            <mxPoint x="300" y="218" as="sourcePoint" />
            <mxPoint x="420" y="190" as="targetPoint" />
            <Array as="points" />
          </mxGeometry>
        </mxCell>
      </root>
    </mxGraphModel>
  </diagram>
</mxfile>
